<?xml version="1.0" encoding="utf-8"?>
<!-- Generator: Adobe Illustrator 24.2.3, SVG Export Plug-In . SVG Version: 6.00 Build 0)  -->
<svg version="1.1" id="Layer_1" xmlns="http://www.w3.org/2000/svg" xmlns:xlink="http://www.w3.org/1999/xlink" x="0px" y="0px"
	 viewBox="0 0 512 128" style="enable-background:new 0 0 512 128;" xml:space="preserve">
<style type="text/css">
	.st0{fill:url(#SVGID_1_);}
	.st1{fill:#85D586;}
</style>
<g>
	<g>
		
			<linearGradient id="SVGID_1_" gradientUnits="userSpaceOnUse" x1="254.8869" y1="167.8978" x2="223.1153" y2="49.325" gradientTransform="matrix(6.123234e-17 1 -1 6.123234e-17 196.4483 -175.3922)">
			<stop  offset="0" style="stop-color:#56A679"/>
			<stop  offset="0.9985" style="stop-color:#85D586"/>
		</linearGradient>
		<path class="st0" d="M25.6,64.4c0-7.5,2.8-14.9,8.5-20.5l33.4-33.4c11.3-11.3,29.8-11.3,41.2,0l33.4,33.4
			c11.3,11.3,11.3,29.8,0,41.2l-11.5,11.5c-2.4,2.4-6.4,2.4-8.8,0c-2.4-2.4-2.4-6.4,0-8.8l11.5-11.5c6.5-6.5,6.5-16.9,0-23.4
			L99.9,19.4c-6.5-6.5-16.9-6.5-23.4,0L43,52.8c-3.1,3.1-4.8,7.3-4.8,11.7s1.7,8.6,4.8,11.7l33.4,33.4c0.2,0.2,0.5,0.5,0.7,0.7
			c3.7,3.3,8.6,4,13.2,1.9c3.8-1.6,7.7-5.7,7.7-11.8V87.2H85.3c-11.2,0-20.4-9.2-20.4-20.4s9.2-20.4,20.4-20.4h4.7
			c11.2,0,20.4,9.2,20.4,20.4v33.8c0,10.2-5.8,19.1-15.1,23.2c-9.1,4.1-19.3,2.5-26.6-4c-0.4-0.4-0.9-0.8-1.3-1.2L34.1,85.3
			C28.4,79.4,25.6,71.9,25.6,64.4z M98,66.7c0-4.4-3.6-7.9-7.9-7.9h-4.7c-4.4,0-7.9,3.6-7.9,7.9c0,4.4,3.6,7.9,7.9,7.9H98V66.7z"/>
	</g>
</g>
<g>
	<path class="st1" d="M199.6,83.4l-9-14.8l-5.5,5.2V82c0,1.9-0.5,3.5-1.5,4.6s-2.2,1.5-3.6,1.5c-1.5,0-2.8-0.5-3.7-1.5
		c-0.9-1.1-1.4-2.6-1.4-4.6V38.2c0-2.2,0.5-4,1.4-5.2c0.9-1.2,2.1-1.7,3.8-1.7c1.5,0,2.8,0.6,3.8,1.6c1,1.1,1.4,2.6,1.4,4.7v24.8
		l11.5-12.1c1.5-1.5,2.5-2.5,3.3-3.1c0.8-0.6,1.6-0.9,2.7-0.9c1.3,0,2.3,0.4,3.2,1.3c0.9,0.8,1.3,1.8,1.3,3.1c0,1.5-1.4,3.5-4.2,6
		l-5.4,5L208,78.2c0.8,1.3,1.4,2.1,1.6,2.8c0.3,0.7,0.5,1.3,0.5,1.8c0,1.6-0.5,2.9-1.4,3.9s-2,1.5-3.5,1.5c-1.3,0-2.2-0.3-2.9-1
		C201.6,86.4,200.8,85.3,199.6,83.4z"/>
	<path class="st1" d="M221.4,41.8c-1.5,0-2.6-0.5-3.7-1.4c-1-0.9-1.5-2.1-1.5-3.7c0-1.5,0.5-2.6,1.5-3.6s2.2-1.5,3.6-1.5
		s2.5,0.4,3.5,1.3c1.1,0.9,1.5,2.1,1.5,3.7s-0.5,2.8-1.5,3.7C223.9,41.3,222.8,41.8,221.4,41.8z M226.4,52.3V82c0,2-0.5,3.6-1.5,4.6
		c-1,1.1-2.2,1.5-3.7,1.5s-2.7-0.6-3.7-1.6s-1.5-2.6-1.5-4.6V52.6c0-2,0.5-3.6,1.5-4.6c1-1.1,2.1-1.5,3.7-1.5c1.5,0,2.7,0.5,3.7,1.5
		C226,49,226.4,50.5,226.4,52.3z"/>
	<path class="st1" d="M237.1,81.9V37.4c0-2,0.5-3.6,1.4-4.6s2.1-1.5,3.7-1.5s2.8,0.5,3.8,1.5c1,1.1,1.5,2.6,1.5,4.6v44.5
		c0,2-0.5,3.7-1.5,4.6c-1,1.1-2.2,1.5-3.8,1.5c-1.5,0-2.7-0.6-3.7-1.6C237.5,85.5,237.1,83.9,237.1,81.9z"/>
	<path class="st1" d="M296.2,67.4c0,3.1-0.5,5.9-1.5,8.4c-1,2.6-2.3,4.7-4.2,6.7c-1.8,1.8-4,3.3-6.5,4.3s-5.3,1.5-8.4,1.5
		c-3.1,0-5.9-0.5-8.3-1.5c-2.5-1-4.6-2.4-6.4-4.3c-1.8-1.8-3.2-4.1-4.2-6.6c-1-2.5-1.5-5.3-1.5-8.4s0.5-5.9,1.5-8.5
		c1-2.6,2.3-4.7,4.1-6.6c1.7-1.8,4-3.2,6.5-4.3c2.5-1,5.3-1.5,8.3-1.5c3.1,0,5.9,0.5,8.4,1.5c2.5,1,4.6,2.4,6.5,4.3
		c1.8,1.8,3.2,4.1,4.1,6.6C295.7,61.4,296.2,64.3,296.2,67.4z M285.9,67.4c0-4.2-0.9-7.5-2.7-9.8c-1.8-2.3-4.3-3.5-7.4-3.5
		c-2,0-3.8,0.5-5.3,1.5c-1.5,1.1-2.7,2.6-3.5,4.6c-0.8,1.9-1.3,4.4-1.3,7.1s0.4,5,1.3,7c0.8,2,1.9,3.5,3.5,4.6s3.3,1.5,5.3,1.5
		c3.1,0,5.6-1.2,7.4-3.5C285,74.7,285.9,71.4,285.9,67.4z"/>
	<path class="st1" d="M341.9,54v29.7c0,3.4-0.4,6.3-1.1,8.8c-0.7,2.4-1.9,4.5-3.5,6.1c-1.6,1.6-3.7,2.8-6.3,3.6
		c-2.6,0.8-5.8,1.2-9.7,1.2c-3.5,0-6.7-0.5-9.5-1.5c-2.8-1-4.9-2.2-6.4-3.9c-1.5-1.5-2.2-3.2-2.2-4.8c0-1.3,0.4-2.2,1.3-3.1
		c0.9-0.8,1.8-1.2,3.1-1.2c1.5,0,2.8,0.7,4,2c0.6,0.7,1.2,1.4,1.7,2c0.6,0.7,1.3,1.3,1.9,1.7c0.7,0.5,1.5,0.9,2.6,1.1
		c1,0.2,2.1,0.4,3.5,0.4c2.6,0,4.7-0.4,6.2-1.1c1.5-0.8,2.5-1.7,3.1-3.1c0.6-1.4,1-2.7,1.1-4.3s0.2-4,0.2-7.3
		c-1.5,2.2-3.4,3.9-5.4,5s-4.6,1.7-7.4,1.7c-3.4,0-6.4-0.9-9-2.6c-2.5-1.7-4.6-4.2-5.9-7.4c-1.4-3.2-2-6.8-2-10.9
		c0-3.1,0.4-5.8,1.3-8.3c0.9-2.5,2-4.6,3.6-6.3c1.5-1.7,3.3-3,5.3-3.9c2-0.9,4.3-1.3,6.7-1.3c2.9,0,5.4,0.6,7.6,1.6
		c2.1,1.1,4.1,2.9,5.9,5.2v-1.4c0-1.7,0.5-3.2,1.4-4.2c0.9-1,2-1.5,3.4-1.5c1.9,0,3.3,0.7,4,1.9C341.6,49.7,341.9,51.6,341.9,54z
		 M312.3,67c0,4.2,0.9,7.3,2.7,9.4c1.8,2.1,4.2,3.2,7.1,3.2c1.7,0,3.3-0.5,4.8-1.4s2.7-2.3,3.7-4.2s1.5-4.1,1.5-6.7
		c0-4.2-0.9-7.5-2.7-9.8c-1.8-2.3-4.3-3.5-7.3-3.5c-2.9,0-5.2,1.1-7.1,3.3C313.1,59.7,312.3,62.9,312.3,67z"/>
	<path class="st1" d="M361.5,73.4v8.5c0,2-0.5,3.7-1.5,4.6c-1,1.1-2.2,1.5-3.7,1.5s-2.7-0.5-3.7-1.5s-1.5-2.6-1.5-4.6V53.4
		c0-4.6,1.6-6.9,5-6.9c1.7,0,2.9,0.6,3.7,1.6c0.8,1.1,1.2,2.7,1.3,4.7c1.3-2.1,2.5-3.7,3.8-4.7c1.3-1.1,3-1.6,5.1-1.6
		c2.1,0,4.3,0.6,6.3,1.6c2,1.1,3,2.5,3,4.3c0,1.3-0.4,2.3-1.3,3.1c-0.9,0.8-1.8,1.3-2.8,1.3c-0.4,0-1.3-0.2-2.7-0.7
		s-2.7-0.7-3.8-0.7c-1.5,0-2.7,0.4-3.7,1.2s-1.6,1.9-2.2,3.5c-0.5,1.5-0.9,3.4-1.1,5.5C361.6,67.7,361.5,70.3,361.5,73.4z"/>
	<path class="st1" d="M408.9,82.4c-2.5,1.9-4.8,3.4-7.2,4.4s-4.9,1.5-7.7,1.5c-2.6,0-4.9-0.5-6.9-1.5c-2-1.1-3.5-2.4-4.6-4.3
		c-1.1-1.7-1.6-3.7-1.6-5.8c0-2.8,0.9-5.2,2.7-7.2c1.7-1.9,4.3-3.3,7.4-4c0.7-0.2,2.2-0.5,4.8-1c2.6-0.5,4.7-1,6.6-1.5s3.9-1,6-1.5
		c-0.1-2.7-0.7-4.6-1.6-5.9c-1-1.3-3-1.9-6-1.9c-2.6,0-4.6,0.4-5.9,1.1c-1.4,0.7-2.4,1.8-3.4,3.3s-1.6,2.4-2,2.9s-1.3,0.7-2.5,0.7
		c-1.2,0-2.1-0.4-3-1.1c-0.9-0.8-1.3-1.6-1.3-2.8c0-1.8,0.7-3.6,1.9-5.2c1.3-1.7,3.3-3.1,6-4.2c2.7-1.1,6.1-1.6,10.1-1.6
		c4.5,0,8,0.5,10.7,1.5s4.4,2.7,5.4,5c1.1,2.3,1.5,5.3,1.5,9.1c0,2.4,0,4.5,0,6.1s0,3.6-0.1,5.6c0,1.9,0.3,4,1,6
		c0.7,2.1,1,3.4,1,4.1c0,1.1-0.5,2-1.5,2.9s-2.1,1.3-3.4,1.3c-1.1,0-2.1-0.5-3.1-1.5C411.1,85.7,410.1,84.3,408.9,82.4z M408.2,67.5
		c-1.5,0.6-3.7,1.2-6.6,1.7s-4.8,1.1-5.9,1.4c-1.1,0.3-2.1,0.9-3.2,1.6c-1,0.9-1.5,2-1.5,3.5c0,1.5,0.6,2.9,1.7,4
		c1.2,1.1,2.7,1.6,4.6,1.6c2,0,3.9-0.5,5.6-1.4s3-2,3.8-3.4c1-1.5,1.4-4.1,1.4-7.7L408.2,67.5L408.2,67.5z"/>
	<path class="st1" d="M462.8,68.1v13.7c0,2.1-0.5,3.8-1.5,4.8s-2.2,1.6-3.9,1.6c-1.5,0-2.8-0.6-3.8-1.6s-1.5-2.7-1.5-4.8V65.5
		c0-2.6-0.1-4.6-0.3-6c-0.2-1.5-0.7-2.6-1.5-3.5c-0.8-0.9-2-1.4-3.7-1.4c-3.4,0-5.5,1.2-6.6,3.5c-1.1,2.3-1.5,5.6-1.5,9.9v13.9
		c0,2.1-0.5,3.8-1.5,4.8s-2.2,1.6-3.8,1.6c-1.5,0-2.8-0.6-3.8-1.6s-1.5-2.7-1.5-4.8V52.6c0-1.9,0.5-3.4,1.4-4.4s2-1.5,3.5-1.5
		c1.4,0,2.6,0.5,3.5,1.5c1,1,1.5,2.2,1.5,3.9v1c1.7-2.1,3.7-3.7,5.7-4.6s4.3-1.5,6.8-1.5c2.6,0,4.7,0.5,6.7,1.5
		c1.8,1.1,3.4,2.6,4.6,4.6c1.7-2.1,3.6-3.7,5.5-4.6s4.2-1.5,6.6-1.5c2.8,0,5.2,0.6,7.3,1.6c2,1.1,3.6,2.7,4.6,4.7
		c0.9,1.8,1.4,4.7,1.4,8.7v20c0,2.1-0.5,3.8-1.5,4.8s-2.2,1.6-3.9,1.6c-1.5,0-2.8-0.6-3.8-1.6s-1.5-2.7-1.5-4.8V64.7
		c0-2.2-0.1-4-0.3-5.3c-0.2-1.4-0.7-2.4-1.5-3.3c-0.9-0.9-2-1.4-3.8-1.4c-1.4,0-2.6,0.4-3.9,1.2c-1.3,0.8-2.1,1.8-2.8,3.2
		C463.1,60.7,462.8,63.7,462.8,68.1z"/>
</g>
</svg>
