<?xml version="1.0" encoding="utf-8"?>
<!-- Generator: Adobe Illustrator 24.2.3, SVG Export Plug-In . SVG Version: 6.00 Build 0)  -->
<svg version="1.1" id="Layer_1" xmlns="http://www.w3.org/2000/svg" xmlns:xlink="http://www.w3.org/1999/xlink" x="0px" y="0px"
	 viewBox="0 0 512 512" style="enable-background:new 0 0 512 512;" xml:space="preserve">
<style type="text/css">
	.st0{fill:url(#SVGID_1_);}
	.st1{fill:#85D586;}
</style>
<g>
	<g>
		
			<linearGradient id="SVGID_1_" gradientUnits="userSpaceOnUse" x1="248.4269" y1="149.536" x2="215.6242" y2="271.957" gradientTransform="matrix(6.123234e-17 1 1 -6.123234e-17 -125.5517 16.6078)">
			<stop  offset="0" style="stop-color:#56A679"/>
			<stop  offset="0.9985" style="stop-color:#85D586"/>
		</linearGradient>
		<path class="st0" d="M20.9,249.5c0-7.7,2.9-15.4,8.8-21.2l34.5-34.5c11.7-11.7,30.8-11.7,42.5,0l34.5,34.5
			c11.7,11.7,11.7,30.8,0,42.5l-11.9,11.9c-2.5,2.5-6.6,2.5-9.1,0s-2.5-6.6,0-9.1l11.9-11.9c6.7-6.7,6.7-17.5,0-24.2L97.6,203
			c-6.7-6.7-17.5-6.7-24.2,0l-34.5,34.5c-3.2,3.2-5,7.5-5,12.1s1.8,8.9,5,12.1l34.5,34.5c0.2,0.2,0.5,0.5,0.7,0.7
			c3.8,3.4,8.9,4.1,13.6,2c3.9-1.7,8-5.9,8-12.2V273H82.6c-11.6,0-21.1-9.5-21.1-21.1s9.5-21.1,21.1-21.1h4.9
			c11.6,0,21.1,9.5,21.1,21.1v34.9c0,10.5-6,19.7-15.6,24c-9.4,4.2-19.9,2.6-27.5-4.1c-0.4-0.4-0.9-0.8-1.3-1.2L29.7,271
			C23.8,264.9,20.9,257.2,20.9,249.5z M95.7,251.8c0-4.5-3.7-8.2-8.2-8.2h-4.9c-4.5,0-8.2,3.7-8.2,8.2c0,4.5,3.7,8.2,8.2,8.2h13.1
			V251.8z"/>
	</g>
</g>
<g>
	<path class="st1" d="M200.6,269.1l-9.3-15.3l-5.7,5.4v8.4c0,2-0.5,3.6-1.6,4.7s-2.3,1.6-3.7,1.6c-1.6,0-2.9-0.5-3.8-1.6
		c-0.9-1.1-1.4-2.7-1.4-4.8v-45.1c0-2.3,0.5-4.1,1.4-5.4c0.9-1.2,2.2-1.8,3.9-1.8c1.6,0,2.9,0.6,3.9,1.7c1,1.1,1.4,2.7,1.4,4.9v25.6
		l11.9-12.5c1.5-1.5,2.6-2.6,3.4-3.2c0.8-0.6,1.7-0.9,2.8-0.9c1.3,0,2.4,0.4,3.3,1.3c0.9,0.8,1.3,1.9,1.3,3.2c0,1.5-1.4,3.6-4.3,6.2
		l-5.6,5.2l10.8,17c0.8,1.3,1.4,2.2,1.7,2.9c0.3,0.7,0.5,1.3,0.5,1.9c0,1.7-0.5,3-1.4,4s-2.1,1.5-3.6,1.5c-1.3,0-2.3-0.3-3-1
		C202.7,272.2,201.8,271,200.6,269.1z"/>
	<path class="st1" d="M223.1,226.1c-1.5,0-2.7-0.5-3.8-1.4c-1-0.9-1.6-2.2-1.6-3.8c0-1.5,0.5-2.7,1.6-3.7s2.3-1.5,3.7-1.5
		s2.6,0.4,3.6,1.3c1.1,0.9,1.6,2.2,1.6,3.8s-0.5,2.9-1.5,3.8C225.7,225.6,224.5,226.1,223.1,226.1z M228.3,237v30.6
		c0,2.1-0.5,3.7-1.5,4.8c-1,1.1-2.3,1.6-3.8,1.6s-2.8-0.6-3.8-1.7s-1.5-2.7-1.5-4.8v-30.2c0-2.1,0.5-3.7,1.5-4.7
		c1-1.1,2.2-1.6,3.8-1.6c1.5,0,2.8,0.5,3.8,1.6C227.8,233.6,228.3,235.1,228.3,237z"/>
	<path class="st1" d="M239.3,267.5v-45.9c0-2.1,0.5-3.7,1.4-4.8s2.2-1.6,3.8-1.6s2.9,0.5,3.9,1.6s1.5,2.7,1.5,4.8v45.9
		c0,2.1-0.5,3.8-1.5,4.8c-1,1.1-2.3,1.6-3.9,1.6c-1.5,0-2.8-0.6-3.8-1.7C239.7,271.2,239.3,269.6,239.3,267.5z"/>
	<path class="st1" d="M300.3,252.5c0,3.2-0.5,6.1-1.5,8.7c-1,2.7-2.4,4.9-4.3,6.9c-1.9,1.9-4.1,3.4-6.7,4.4s-5.5,1.5-8.7,1.5
		s-6.1-0.5-8.6-1.5c-2.6-1-4.8-2.5-6.6-4.4c-1.9-1.9-3.3-4.2-4.3-6.8c-1-2.6-1.5-5.5-1.5-8.7s0.5-6.1,1.5-8.8s2.4-4.9,4.2-6.8
		c1.8-1.9,4.1-3.3,6.7-4.4c2.6-1,5.5-1.5,8.6-1.5c3.2,0,6.1,0.5,8.7,1.6c2.6,1,4.8,2.5,6.7,4.4c1.9,1.9,3.3,4.2,4.2,6.8
		C299.8,246.4,300.3,249.3,300.3,252.5z M289.7,252.5c0-4.3-0.9-7.7-2.8-10.1c-1.9-2.4-4.4-3.6-7.6-3.6c-2.1,0-3.9,0.5-5.5,1.6
		s-2.8,2.7-3.6,4.7s-1.3,4.5-1.3,7.3s0.4,5.2,1.3,7.2c0.8,2.1,2,3.6,3.6,4.7s3.4,1.6,5.5,1.6c3.2,0,5.8-1.2,7.6-3.6
		C288.8,260.1,289.7,256.7,289.7,252.5z"/>
	<path class="st1" d="M347.5,238.7v30.7c0,3.5-0.4,6.5-1.1,9.1c-0.7,2.5-2,4.6-3.6,6.3c-1.7,1.7-3.8,2.9-6.5,3.7
		c-2.7,0.8-6,1.2-10,1.2c-3.6,0-6.9-0.5-9.8-1.5s-5.1-2.3-6.6-4c-1.5-1.6-2.3-3.3-2.3-5c0-1.3,0.4-2.3,1.3-3.2
		c0.9-0.8,1.9-1.2,3.2-1.2c1.5,0,2.9,0.7,4.1,2.1c0.6,0.7,1.2,1.4,1.8,2.1s1.3,1.3,2,1.8s1.6,0.9,2.7,1.1c1,0.2,2.2,0.4,3.6,0.4
		c2.7,0,4.9-0.4,6.4-1.1c1.5-0.8,2.6-1.8,3.2-3.2c0.6-1.4,1-2.8,1.1-4.4s0.2-4.1,0.2-7.5c-1.6,2.3-3.5,4-5.6,5.2s-4.7,1.8-7.6,1.8
		c-3.5,0-6.6-0.9-9.3-2.7c-2.6-1.8-4.7-4.3-6.1-7.6c-1.4-3.3-2.1-7-2.1-11.3c0-3.2,0.4-6,1.3-8.6s2.1-4.7,3.7-6.5s3.4-3.1,5.5-4
		s4.4-1.3,6.9-1.3c3,0,5.6,0.6,7.8,1.7c2.2,1.1,4.2,3,6.1,5.4v-1.4c0-1.8,0.5-3.3,1.4-4.3s2.1-1.5,3.5-1.5c2,0,3.4,0.7,4.1,2
		C347.2,234.3,347.5,236.2,347.5,238.7z M316.9,252.1c0,4.3,0.9,7.5,2.8,9.7s4.3,3.3,7.3,3.3c1.8,0,3.4-0.5,5-1.4s2.8-2.4,3.8-4.3
		s1.5-4.2,1.5-6.9c0-4.3-0.9-7.7-2.8-10.1c-1.9-2.4-4.4-3.6-7.5-3.6c-3,0-5.4,1.1-7.3,3.4C317.8,244.6,316.9,247.9,316.9,252.1z"/>
	<path class="st1" d="M367.7,258.7v8.8c0,2.1-0.5,3.8-1.5,4.8c-1,1.1-2.3,1.6-3.8,1.6s-2.8-0.5-3.8-1.6s-1.5-2.7-1.5-4.8v-29.4
		c0-4.8,1.7-7.1,5.2-7.1c1.8,0,3,0.6,3.8,1.7c0.8,1.1,1.2,2.8,1.3,4.9c1.3-2.2,2.6-3.8,3.9-4.9c1.3-1.1,3.1-1.7,5.3-1.7
		c2.2,0,4.4,0.6,6.5,1.7c2.1,1.1,3.1,2.6,3.1,4.4c0,1.3-0.4,2.4-1.3,3.2s-1.9,1.3-2.9,1.3c-0.4,0-1.3-0.2-2.8-0.7s-2.8-0.7-3.9-0.7
		c-1.5,0-2.8,0.4-3.8,1.2s-1.7,2-2.3,3.6c-0.5,1.6-0.9,3.5-1.1,5.7C367.8,252.9,367.7,255.5,367.7,258.7z"/>
	<path class="st1" d="M416.7,268c-2.6,2-5,3.5-7.4,4.5s-5.1,1.5-8,1.5c-2.7,0-5.1-0.5-7.1-1.6c-2.1-1.1-3.6-2.5-4.7-4.4
		c-1.1-1.8-1.7-3.8-1.7-6c0-2.9,0.9-5.4,2.8-7.4c1.8-2,4.4-3.4,7.6-4.1c0.7-0.2,2.3-0.5,5-1s4.9-1,6.8-1.5s4-1,6.2-1.6
		c-0.1-2.8-0.7-4.8-1.7-6.1s-3.1-2-6.2-2c-2.7,0-4.7,0.4-6.1,1.1c-1.4,0.7-2.5,1.9-3.5,3.4s-1.7,2.5-2.1,3s-1.3,0.7-2.6,0.7
		c-1.2,0-2.2-0.4-3.1-1.1c-0.9-0.8-1.3-1.7-1.3-2.9c0-1.9,0.7-3.7,2-5.4c1.3-1.8,3.4-3.2,6.2-4.3c2.8-1.1,6.3-1.7,10.4-1.7
		c4.6,0,8.3,0.5,11,1.6s4.5,2.8,5.6,5.2s1.6,5.5,1.6,9.4c0,2.5,0,4.6,0,6.3s0,3.7-0.1,5.8c0,2,0.3,4.1,1,6.2c0.7,2.2,1,3.5,1,4.2
		c0,1.1-0.5,2.1-1.5,3s-2.2,1.3-3.5,1.3c-1.1,0-2.2-0.5-3.2-1.5C419,271.4,417.9,270,416.7,268z M416,252.7
		c-1.5,0.6-3.8,1.2-6.8,1.8s-5,1.1-6.1,1.4s-2.2,0.9-3.3,1.7c-1,0.9-1.5,2.1-1.5,3.6c0,1.6,0.6,3,1.8,4.1c1.2,1.1,2.8,1.7,4.8,1.7
		c2.1,0,4-0.5,5.8-1.4s3.1-2.1,3.9-3.5c1-1.6,1.4-4.2,1.4-7.9L416,252.7L416,252.7z"/>
	<path class="st1" d="M472.3,253.3v14.1c0,2.2-0.5,3.9-1.5,5s-2.3,1.7-4,1.7c-1.6,0-2.9-0.6-3.9-1.7s-1.5-2.8-1.5-5v-16.8
		c0-2.7-0.1-4.7-0.3-6.2c-0.2-1.5-0.7-2.7-1.5-3.6c-0.8-0.9-2.1-1.4-3.8-1.4c-3.5,0-5.7,1.2-6.8,3.6c-1.1,2.4-1.6,5.8-1.6,10.2v14.3
		c0,2.2-0.5,3.9-1.5,5s-2.3,1.7-3.9,1.7s-2.9-0.6-3.9-1.7s-1.5-2.8-1.5-5v-30.2c0-2,0.5-3.5,1.4-4.5s2.1-1.6,3.6-1.6
		c1.4,0,2.7,0.5,3.6,1.5c1,1,1.5,2.3,1.5,4v1c1.8-2.2,3.8-3.8,5.9-4.8s4.4-1.5,7-1.5c2.7,0,4.9,0.5,6.9,1.6c1.9,1.1,3.5,2.7,4.7,4.8
		c1.8-2.2,3.7-3.8,5.7-4.8s4.3-1.6,6.8-1.6c2.9,0,5.4,0.6,7.5,1.7c2.1,1.1,3.7,2.8,4.7,4.9c0.9,1.9,1.4,4.9,1.4,9v20.6
		c0,2.2-0.5,3.9-1.5,5s-2.3,1.7-4,1.7c-1.6,0-2.9-0.6-3.9-1.7s-1.5-2.8-1.5-5v-17.8c0-2.3-0.1-4.1-0.3-5.5c-0.2-1.4-0.7-2.5-1.6-3.4
		s-2.1-1.4-3.9-1.4c-1.4,0-2.7,0.4-4,1.2s-2.2,1.9-2.9,3.3C472.6,245.6,472.3,248.7,472.3,253.3z"/>
</g>
</svg>
