<svg id="Layer_1" data-name="Layer 1" xmlns="http://www.w3.org/2000/svg" xmlns:xlink="http://www.w3.org/1999/xlink" viewBox="0 0 479.3 475.64"><defs><style>.cls-1{fill:url(#linear-gradient);}</style><linearGradient id="linear-gradient" x1="299.5" y1="361.89" x2="177.69" y2="-92.7" gradientTransform="translate(388.45 16.61) rotate(90)" gradientUnits="userSpaceOnUse"><stop offset="0" stop-color="#56a679"/><stop offset="1" stop-color="#85d586"/></linearGradient></defs><path class="cls-1" d="M15.1,258.42A109.83,109.83,0,0,1,47.78,179.7L175.89,51.58c43.44-43.44,114.37-43.44,157.82,0L461.82,179.7c43.44,43.44,43.44,114.37,0,157.81L417.63,381.7a23.89,23.89,0,0,1-33.79-33.79L428,303.72a63.42,63.42,0,0,0,0-89.86L299.91,85.75a63.42,63.42,0,0,0-89.86,0L81.94,213.86a63.64,63.64,0,0,0,0,89.86L210.05,431.83l2.6,2.6c14.11,12.63,33,15.23,50.5,7.43,14.48-6.32,29.71-21.91,29.71-45.31V345.68H244.21a78.35,78.35,0,0,1,0-156.7h18.2a78.61,78.61,0,0,1,78.35,78.35v129.6c0,39-22.28,73.15-57.93,89.12-34.9,15.59-73.89,9.65-102.11-15.23-1.49-1.48-3.35-3-4.83-4.45L47.78,338.25A114.26,114.26,0,0,1,15.1,258.42ZM292.86,267a30.59,30.59,0,0,0-30.45-30.45h-18.2a30.45,30.45,0,0,0,0,60.9h48.65Z" transform="translate(-15.1 -19)"/></svg>