<?xml version="1.0" encoding="utf-8"?>
<!-- Generator: Adobe Illustrator 24.2.3, SVG Export Plug-In . SVG Version: 6.00 Build 0)  -->
<svg version="1.1" id="Layer_1" xmlns="http://www.w3.org/2000/svg" xmlns:xlink="http://www.w3.org/1999/xlink" x="0px" y="0px"
	 viewBox="0 0 512 128" style="enable-background:new 0 0 512 128;" xml:space="preserve">
<style type="text/css">
	.st0{fill:url(#SVGID_1_);}
	.st1{fill:#56A679;}
</style>
<g>
	<g>
		
			<linearGradient id="SVGID_1_" gradientUnits="userSpaceOnUse" x1="254.8677" y1="-39.8673" x2="223.1034" y2="78.6782" gradientTransform="matrix(6.123234e-17 1 1 -6.123234e-17 68.4483 -175.3922)">
			<stop  offset="0" style="stop-color:#56A679"/>
			<stop  offset="0.9985" style="stop-color:#85D586"/>
		</linearGradient>
		<path class="st0" d="M25.6,64.4c0-7.5,2.8-14.9,8.5-20.5l33.4-33.4c11.3-11.3,29.8-11.3,41.2,0l33.4,33.4
			c11.3,11.3,11.3,29.8,0,41.2l-11.5,11.5c-2.4,2.4-6.4,2.4-8.8,0s-2.4-6.4,0-8.8l11.5-11.5c6.5-6.5,6.5-16.9,0-23.4L99.9,19.4
			c-6.5-6.5-16.9-6.5-23.4,0L43,52.8c-3.1,3.1-4.8,7.3-4.8,11.7s1.7,8.6,4.8,11.7l33.4,33.4c0.2,0.2,0.5,0.5,0.7,0.7
			c3.7,3.3,8.6,4,13.2,1.9c3.8-1.6,7.7-5.7,7.7-11.8V87.2H85.3c-11.2,0-20.4-9.2-20.4-20.4s9.2-20.4,20.4-20.4H90
			c11.2,0,20.4,9.2,20.4,20.4v33.8c0,10.2-5.8,19.1-15.1,23.2c-9.1,4.1-19.3,2.5-26.6-4c-0.4-0.4-0.9-0.8-1.3-1.2L34.1,85.3
			C28.4,79.4,25.6,71.9,25.6,64.4z M98,66.7c0-4.4-3.6-7.9-7.9-7.9h-4.7c-4.4,0-7.9,3.6-7.9,7.9c0,4.4,3.6,7.9,7.9,7.9H98V66.7z"/>
	</g>
</g>
<g>
	<path class="st1" d="M174.9,90.1V34h7.8v56.2H174.9z M182,77.6l-0.4-8.5l19-18.9h10.5L182,77.6z M201.8,90.1l-15-17.5l5.6-5.1
		l19.5,22.6H201.8z"/>
	<path class="st1" d="M223.2,41.5c-1.7,0-2.9-0.4-3.9-1.3c-0.9-0.9-1.4-2-1.4-3.6c0-1.5,0.5-2.6,1.4-3.6c1-0.9,2.2-1.4,3.8-1.4
		c1.7,0,2.9,0.4,3.9,1.3c0.9,0.9,1.4,2,1.4,3.6c0,1.5-0.5,2.6-1.4,3.6C226,41,224.7,41.5,223.2,41.5z M219.4,90.1V50.2h7.8v39.9
		H219.4z"/>
	<path class="st1" d="M239.3,90.1V34h7.8v56.2H239.3z"/>
	<path class="st1" d="M275.3,90.9c-3.9,0-7.4-0.9-10.4-2.7c-3-1.8-5.5-4.3-7.2-7.4c-1.8-3.1-2.6-6.6-2.6-10.6c0-4,0.9-7.5,2.6-10.6
		c1.8-3.1,4.2-5.6,7.2-7.4c3-1.8,6.5-2.7,10.4-2.7c3.8,0,7.3,0.9,10.3,2.7c3,1.8,5.5,4.3,7.2,7.4c1.8,3.1,2.6,6.6,2.6,10.6
		c0,4-0.9,7.6-2.6,10.6c-1.8,3.1-4.2,5.6-7.2,7.4S279.2,90.9,275.3,90.9z M275.3,83.8c2.3,0,4.5-0.6,6.3-1.8
		c1.9-1.2,3.3-2.8,4.4-4.9c1.1-2,1.6-4.4,1.6-6.9c0.1-2.6-0.5-5-1.6-7c-1.1-2-2.5-3.7-4.4-4.8c-1.9-1.2-4-1.8-6.3-1.8
		c-2.3,0-4.5,0.6-6.4,1.8c-1.9,1.2-3.4,2.8-4.5,4.9c-1.1,2-1.6,4.4-1.6,6.9c-0.1,2.5,0.5,4.9,1.6,6.9c1.1,2,2.5,3.7,4.5,4.9
		C270.8,83.1,273,83.8,275.3,83.8z"/>
	<path class="st1" d="M322,107.6c-2.8,0-5.7-0.5-8.5-1.4c-2.8-0.9-5.1-2-6.8-3.4l2.9-6c1,0.8,2.2,1.5,3.6,2c1.4,0.6,2.8,1.1,4.3,1.4
		c1.6,0.3,3,0.5,4.5,0.5c2.8,0,5.1-0.5,7-1.4c1.9-0.9,3.3-2.2,4.3-4c1-1.8,1.5-4,1.5-6.6V81l0.9,0.5c-0.3,1.6-1.1,3.1-2.4,4.5
		c-1.4,1.5-3.1,2.6-5.2,3.5c-2,0.9-4.2,1.4-6.3,1.4c-3.8,0-7.2-0.9-10.1-2.7c-2.9-1.8-5.3-4.3-7-7.4C302.8,77.5,302,74,302,70
		c0-4,0.9-7.5,2.5-10.6c1.7-3.1,4-5.6,7-7.4c2.9-1.8,6.3-2.7,9.9-2.7c1.6,0,3,0.2,4.4,0.6c1.5,0.4,2.7,0.9,3.9,1.6
		c1.2,0.7,2.3,1.5,3.2,2.2c1,0.8,1.8,1.7,2.3,2.5c0.6,0.9,1,1.8,1.2,2.5l-1.7,0.6V50h7.8v37.4c0,3.2-0.5,6-1.4,8.5
		c-1,2.4-2.3,4.5-4.1,6.2c-1.8,1.7-3.9,3-6.4,3.9C328.1,107.2,325.1,107.6,322,107.6z M322.3,83.7c2.4,0,4.7-0.6,6.6-1.8
		c1.9-1.2,3.4-2.7,4.5-4.8c1.1-2,1.6-4.4,1.6-7s-0.6-5-1.7-7c-1.1-2-2.5-3.7-4.5-4.8c-1.9-1.2-4.1-1.8-6.5-1.8
		c-2.4,0-4.6,0.6-6.5,1.8c-1.9,1.2-3.4,2.8-4.5,4.9c-1.1,2-1.7,4.4-1.7,6.9c0,2.5,0.6,4.9,1.7,6.9c1.1,2,2.5,3.7,4.5,4.8
		C317.7,83.1,319.9,83.7,322.3,83.7z"/>
	<path class="st1" d="M353.4,90.1V50.2h7.9v12.6l-0.8-3c0.6-1.9,1.5-3.7,2.8-5.3c1.4-1.6,2.9-2.8,4.7-3.7c1.8-0.9,3.5-1.4,5.5-1.4
		c0.9,0,1.7,0.1,2.4,0.2c0.8,0.2,1.4,0.3,1.9,0.5l-2,8.5c-0.6-0.3-1.3-0.5-2-0.7c-0.8-0.2-1.5-0.3-2.1-0.3c-1.4,0-2.6,0.3-3.9,0.8
		s-2.3,1.3-3.2,2.2c-1,1-1.7,2-2.2,3.2c-0.6,1.3-0.9,2.6-0.9,4.1v22L353.4,90.1L353.4,90.1z"/>
	<path class="st1" d="M397.7,90.9c-3.3,0-6.3-0.9-9-2.7c-2.7-1.9-4.9-4.3-6.5-7.4c-1.7-3.1-2.4-6.7-2.4-10.6c0-4,0.8-7.5,2.4-10.6
		c1.7-3.1,3.9-5.6,6.7-7.3c2.8-1.8,5.9-2.6,9.5-2.6c2,0,4,0.3,5.7,0.9c1.8,0.6,3.2,1.5,4.5,2.5c1.3,1.1,2.3,2.3,3.2,3.8
		c0.9,1.5,1.4,2.9,1.6,4.6l-1.8-0.6V50.4h7.9v39.9h-7.9v-9.5l1.9-0.5c-0.3,1.4-0.9,2.7-1.9,4c-1,1.3-2.1,2.4-3.6,3.4
		c-1.5,1-3,1.9-4.8,2.4C401.5,90.6,399.6,90.9,397.7,90.9z M399.7,83.7c2.3,0,4.5-0.6,6.3-1.8c1.9-1.2,3.2-2.7,4.3-4.8
		c1.1-2,1.6-4.4,1.6-7c0-2.5-0.5-4.9-1.6-6.9c-1.1-2-2.4-3.6-4.3-4.8s-3.9-1.8-6.3-1.8c-2.3,0-4.4,0.6-6.1,1.8s-3.2,2.7-4.3,4.8
		c-1.1,2-1.6,4.3-1.6,6.9s0.5,5,1.6,7c1.1,2,2.4,3.7,4.3,4.8C395.3,83.1,397.4,83.7,399.7,83.7z"/>
	<path class="st1" d="M430.2,90.1V50.2h7.9v8.5l-1.5,0.9c0.4-1.3,1.1-2.5,1.9-3.8c0.9-1.2,1.9-2.2,3.2-3.2c1.3-1,2.7-1.7,4.2-2.2
		c1.5-0.6,3-0.9,4.6-0.9c2.2,0,4.3,0.4,6,1.2c1.8,0.8,3.1,1.9,4.3,3.4c1.1,1.6,1.9,3.4,2.4,5.7l-1.2-0.3l0.5-1.3
		c0.6-1.2,1.4-2.2,2.3-3.3c1-1.1,2.1-1.9,3.4-2.7c1.3-0.8,2.6-1.5,4-1.9c1.5-0.5,2.8-0.7,4.2-0.7c3,0,5.5,0.6,7.4,1.9
		c1.9,1.2,3.4,3,4.4,5.6c1,2.4,1.5,5.6,1.5,9.3v23.9H482V66.6c0-2.2-0.3-4.1-0.9-5.6s-1.5-2.5-2.6-3.2s-2.6-1.1-4.5-1.1
		c-1.5,0-2.7,0.2-4,0.7c-1.3,0.5-2.3,1.2-3.2,2c-0.9,0.9-1.7,1.9-2.1,3c-0.5,1.2-0.8,2.4-0.8,3.8v23.9H456V66.6c0-2-0.3-3.8-0.9-5.3
		c-0.6-1.5-1.5-2.5-2.6-3.3c-1.2-0.8-2.5-1.2-4.3-1.2c-1.5,0-2.7,0.2-3.9,0.7c-1.2,0.5-2.2,1.2-3.2,1.9c-0.9,0.9-1.7,1.9-2.1,2.9
		c-0.5,1.2-0.8,2.3-0.8,3.7v24H430.2z"/>
</g>
</svg>
