<?xml version="1.0" encoding="utf-8"?>
<!-- Generator: Adobe Illustrator 24.2.3, SVG Export Plug-In . SVG Version: 6.00 Build 0)  -->
<svg version="1.1" id="Layer_1" xmlns="http://www.w3.org/2000/svg" xmlns:xlink="http://www.w3.org/1999/xlink" x="0px" y="0px"
	 viewBox="0 0 512 512" style="enable-background:new 0 0 512 512;" xml:space="preserve">
<style type="text/css">
	.st0{fill:url(#SVGID_1_);}
	.st1{fill:#56A679;}
</style>
<g>
	<g>
		
			<linearGradient id="SVGID_1_" gradientUnits="userSpaceOnUse" x1="56.4269" y1="170.464" x2="23.6242" y2="48.043" gradientTransform="matrix(6.123234e-17 1 -1 6.123234e-17 194.4483 208.6078)">
			<stop  offset="0" style="stop-color:#56A679"/>
			<stop  offset="0.9985" style="stop-color:#85D586"/>
		</linearGradient>
		<path class="st0" d="M20.9,249.5c0-7.7,2.9-15.4,8.8-21.2l34.5-34.5c11.7-11.7,30.8-11.7,42.5,0l34.5,34.5
			c11.7,11.7,11.7,30.8,0,42.5l-11.9,11.9c-2.5,2.5-6.6,2.5-9.1,0s-2.5-6.6,0-9.1l11.9-11.9c6.7-6.7,6.7-17.5,0-24.2L97.6,203
			c-6.7-6.7-17.5-6.7-24.2,0l-34.5,34.5c-3.2,3.2-5,7.5-5,12.1s1.8,8.9,5,12.1l34.5,34.5c0.2,0.2,0.5,0.5,0.7,0.7
			c3.8,3.4,8.9,4.1,13.6,2c3.9-1.7,8-5.9,8-12.2V273H82.6c-11.6,0-21.1-9.5-21.1-21.1s9.5-21.1,21.1-21.1h4.9
			c11.6,0,21.1,9.5,21.1,21.1v34.9c0,10.5-6,19.7-15.6,24c-9.4,4.2-19.9,2.6-27.5-4.1c-0.4-0.4-0.9-0.8-1.3-1.2L29.7,271
			C23.8,264.9,20.9,257.2,20.9,249.5z M95.7,251.8c0-4.5-3.7-8.2-8.2-8.2h-4.9c-4.5,0-8.2,3.7-8.2,8.2c0,4.5,3.7,8.2,8.2,8.2h13.1
			V251.8z"/>
	</g>
</g>
<g>
	<path class="st1" d="M173.6,282.3v-57.6h8v57.6H173.6z M180.9,269.5l-0.4-8.7l19.5-19.4h10.8L180.9,269.5z M201.2,282.3l-15.4-18
		l5.7-5.2l20,23.2H201.2z"/>
	<path class="st1" d="M223.1,232.4c-1.7,0-3-0.4-4-1.3c-0.9-0.9-1.4-2.1-1.4-3.7c0-1.5,0.5-2.7,1.4-3.7c1-0.9,2.3-1.4,3.9-1.4
		c1.7,0,3,0.4,4,1.3c0.9,0.9,1.4,2.1,1.4,3.7c0,1.5-0.5,2.7-1.4,3.7C226,231.9,224.7,232.4,223.1,232.4z M219.2,282.3v-40.9h8v40.9
		H219.2z"/>
	<path class="st1" d="M239.7,282.3v-57.6h8v57.6H239.7z"/>
	<path class="st1" d="M276.6,283.1c-4,0-7.6-0.9-10.7-2.8c-3.1-1.8-5.6-4.4-7.4-7.6c-1.8-3.2-2.7-6.8-2.7-10.9
		c0-4.1,0.9-7.7,2.7-10.9c1.8-3.2,4.3-5.7,7.4-7.6c3.1-1.8,6.7-2.8,10.7-2.8c3.9,0,7.5,0.9,10.6,2.8c3.1,1.8,5.6,4.4,7.4,7.6
		c1.8,3.2,2.7,6.8,2.7,10.9c0,4.1-0.9,7.8-2.7,10.9c-1.8,3.2-4.3,5.7-7.4,7.6C284.1,282.2,280.6,283.1,276.6,283.1z M276.6,275.8
		c2.4,0,4.6-0.6,6.5-1.8c1.9-1.2,3.4-2.9,4.5-5s1.6-4.5,1.6-7.1c0.1-2.7-0.5-5.1-1.6-7.2c-1.1-2.1-2.6-3.8-4.5-4.9
		c-1.9-1.2-4.1-1.8-6.5-1.8c-2.4,0-4.6,0.6-6.6,1.8c-1.9,1.2-3.5,2.9-4.6,5c-1.1,2.1-1.6,4.5-1.6,7.1c-0.1,2.6,0.5,5,1.6,7.1
		c1.1,2.1,2.6,3.8,4.6,5C272,275.1,274.2,275.8,276.6,275.8z"/>
	<path class="st1" d="M324.5,300.2c-2.9,0-5.8-0.5-8.7-1.4c-2.9-0.9-5.2-2.1-7-3.5l3-6.2c1,0.8,2.3,1.5,3.7,2.1
		c1.4,0.6,2.9,1.1,4.4,1.4c1.6,0.3,3.1,0.5,4.6,0.5c2.9,0,5.2-0.5,7.2-1.4s3.4-2.3,4.4-4.1s1.5-4.1,1.5-6.8v-7.9l0.9,0.5
		c-0.3,1.6-1.1,3.2-2.5,4.6c-1.4,1.5-3.2,2.7-5.3,3.6c-2.1,0.9-4.3,1.4-6.5,1.4c-3.9,0-7.4-0.9-10.4-2.8c-3-1.8-5.4-4.4-7.2-7.6
		c-1.8-3.2-2.6-6.8-2.6-10.9c0-4.1,0.9-7.7,2.6-10.9c1.7-3.2,4.1-5.7,7.2-7.6c3-1.8,6.5-2.8,10.2-2.8c1.6,0,3.1,0.2,4.5,0.6
		c1.5,0.4,2.8,0.9,4,1.6c1.2,0.7,2.4,1.5,3.3,2.3c1,0.8,1.8,1.7,2.4,2.6s1,1.8,1.2,2.6l-1.7,0.6v-9.6h8v38.4c0,3.3-0.5,6.2-1.4,8.7
		c-1,2.5-2.4,4.6-4.2,6.4c-1.8,1.7-4,3.1-6.6,4C330.7,299.8,327.7,300.2,324.5,300.2z M324.8,275.7c2.5,0,4.8-0.6,6.8-1.8
		c2-1.2,3.5-2.8,4.6-4.9c1.1-2.1,1.6-4.5,1.6-7.2c0-2.7-0.6-5.1-1.7-7.2c-1.1-2.1-2.6-3.8-4.6-4.9c-1.9-1.2-4.2-1.8-6.7-1.8
		c-2.5,0-4.7,0.6-6.7,1.8c-1.9,1.2-3.5,2.9-4.6,5c-1.1,2.1-1.7,4.5-1.7,7.1c0,2.6,0.6,5,1.7,7.1s2.6,3.8,4.6,4.9
		C320.1,275.1,322.3,275.7,324.8,275.7z"/>
	<path class="st1" d="M356.7,282.3v-40.9h8.1v12.9l-0.8-3.1c0.6-2,1.5-3.8,2.9-5.4c1.4-1.6,3-2.9,4.8-3.8s3.6-1.4,5.6-1.4
		c0.9,0,1.7,0.1,2.5,0.2c0.8,0.2,1.4,0.3,1.9,0.5l-2.1,8.7c-0.6-0.3-1.3-0.5-2.1-0.7c-0.8-0.2-1.5-0.3-2.2-0.3c-1.4,0-2.7,0.3-4,0.8
		c-1.3,0.5-2.4,1.3-3.3,2.3c-1,1-1.7,2.1-2.3,3.3c-0.6,1.3-0.9,2.7-0.9,4.2v22.6H356.7z"/>
	<path class="st1" d="M402.1,283.1c-3.4,0-6.5-0.9-9.2-2.8c-2.8-1.9-5-4.4-6.7-7.6c-1.7-3.2-2.5-6.9-2.5-10.9
		c0-4.1,0.8-7.7,2.5-10.9c1.7-3.2,4-5.7,6.9-7.5c2.9-1.8,6.1-2.7,9.7-2.7c2.1,0,4.1,0.3,5.8,0.9c1.8,0.6,3.3,1.5,4.6,2.6
		c1.3,1.1,2.4,2.4,3.3,3.9c0.9,1.5,1.4,3,1.6,4.7l-1.8-0.6v-10.6h8.1v40.9h-8.1v-9.7l1.9-0.5c-0.3,1.4-0.9,2.8-1.9,4.1
		c-1,1.3-2.2,2.5-3.7,3.5c-1.5,1-3.1,1.9-4.9,2.5C406,282.8,404.1,283.1,402.1,283.1z M404.2,275.7c2.4,0,4.6-0.6,6.5-1.8
		c1.9-1.2,3.3-2.8,4.4-4.9c1.1-2.1,1.6-4.5,1.6-7.2c0-2.6-0.5-5-1.6-7.1c-1.1-2.1-2.5-3.7-4.4-4.9c-1.9-1.2-4-1.8-6.5-1.8
		c-2.4,0-4.5,0.6-6.3,1.8c-1.8,1.2-3.3,2.8-4.4,4.9c-1.1,2.1-1.6,4.4-1.6,7.1c0,2.7,0.5,5.1,1.6,7.2c1.1,2.1,2.5,3.8,4.4,4.9
		C399.7,275.1,401.8,275.7,404.2,275.7z"/>
	<path class="st1" d="M435.5,282.3v-40.9h8.1v8.7l-1.5,0.9c0.4-1.3,1.1-2.6,2-3.9c0.9-1.2,2-2.3,3.3-3.3c1.3-1,2.8-1.7,4.3-2.3
		c1.5-0.6,3.1-0.9,4.7-0.9c2.3,0,4.4,0.4,6.2,1.2c1.8,0.8,3.2,1.9,4.4,3.5c1.1,1.6,2,3.5,2.5,5.8l-1.2-0.3l0.5-1.3
		c0.6-1.2,1.4-2.3,2.4-3.4c1-1.1,2.2-2,3.5-2.8c1.3-0.8,2.7-1.5,4.1-1.9c1.5-0.5,2.9-0.7,4.3-0.7c3.1,0,5.6,0.6,7.6,1.9
		c2,1.2,3.5,3.1,4.5,5.7c1,2.5,1.5,5.7,1.5,9.5v24.5h-8.1v-24.1c0-2.3-0.3-4.2-0.9-5.7c-0.6-1.5-1.5-2.6-2.7-3.3
		c-1.2-0.7-2.7-1.1-4.6-1.1c-1.5,0-2.8,0.2-4.1,0.7c-1.3,0.5-2.4,1.2-3.3,2.1c-0.9,0.9-1.7,1.9-2.2,3.1c-0.5,1.2-0.8,2.5-0.8,3.9
		v24.5h-8.1v-24.2c0-2.1-0.3-3.9-0.9-5.4c-0.6-1.5-1.5-2.6-2.7-3.4c-1.2-0.8-2.6-1.2-4.4-1.2c-1.5,0-2.8,0.2-4,0.7
		c-1.2,0.5-2.3,1.2-3.3,2c-0.9,0.9-1.7,1.9-2.2,3c-0.5,1.2-0.8,2.4-0.8,3.8v24.6H435.5z"/>
</g>
</svg>
