<?xml version="1.0" encoding="utf-8"?>
<!-- Generator: Adobe Illustrator 24.2.3, SVG Export Plug-In . SVG Version: 6.00 Build 0)  -->
<svg version="1.1" id="Layer_1" xmlns="http://www.w3.org/2000/svg" xmlns:xlink="http://www.w3.org/1999/xlink" x="0px" y="0px"
	 viewBox="0 0 512 512" style="enable-background:new 0 0 512 512;" xml:space="preserve">
<style type="text/css">
	.st0{fill:url(#SVGID_1_);}
	.st1{fill:#85D586;}
</style>
<g>
	<g>
		
			<linearGradient id="SVGID_1_" gradientUnits="userSpaceOnUse" x1="-327.5731" y1="170.464" x2="-360.3758" y2="48.043" gradientTransform="matrix(6.123234e-17 1 -1 6.123234e-17 194.4483 592.6078)">
			<stop  offset="0" style="stop-color:#56A679"/>
			<stop  offset="0.9985" style="stop-color:#85D586"/>
		</linearGradient>
		<path class="st0" d="M20.9,249.5c0-7.7,2.9-15.4,8.8-21.2l34.5-34.5c11.7-11.7,30.8-11.7,42.5,0l34.5,34.5
			c11.7,11.7,11.7,30.8,0,42.5l-11.9,11.9c-2.5,2.5-6.6,2.5-9.1,0s-2.5-6.6,0-9.1l11.9-11.9c6.7-6.7,6.7-17.5,0-24.2L97.6,203
			c-6.7-6.7-17.5-6.7-24.2,0l-34.5,34.5c-3.2,3.2-5,7.5-5,12.1s1.8,8.9,5,12.1l34.5,34.5c0.2,0.2,0.5,0.5,0.7,0.7
			c3.8,3.4,8.9,4.1,13.6,2c3.9-1.7,8-5.9,8-12.2V273H82.6c-11.6,0-21.1-9.5-21.1-21.1s9.5-21.1,21.1-21.1h4.9
			c11.6,0,21.1,9.5,21.1,21.1v34.9c0,10.5-6,19.7-15.6,24c-9.4,4.2-19.9,2.6-27.5-4.1c-0.4-0.4-0.9-0.8-1.3-1.2L29.7,271
			C23.8,264.9,20.9,257.2,20.9,249.5z M95.7,251.8c0-4.5-3.7-8.2-8.2-8.2h-4.9c-4.5,0-8.2,3.7-8.2,8.2c0,4.5,3.7,8.2,8.2,8.2h13.1
			V251.8z"/>
	</g>
</g>
<g>
	<path class="st1" d="M219.8,244.8c0,3.6-0.6,7-1.8,10.1c-1.2,3.1-2.9,5.9-5.1,8.2c-2.2,2.4-4.8,4.2-7.8,5.6c-3,1.3-6.3,2-9.8,2
		c-3.6,0-6.8-0.7-9.8-2c-3-1.3-5.6-3.2-7.7-5.6c-2.2-2.4-3.9-5.1-5.1-8.2c-1.2-3.1-1.8-6.5-1.8-10.1c0-3.6,0.6-7,1.8-10.1
		c1.2-3.1,2.9-5.9,5.1-8.2c2.2-2.4,4.8-4.2,7.7-5.6c3-1.3,6.2-2,9.8-2c3.6,0,6.8,0.7,9.8,2c3,1.3,5.6,3.2,7.8,5.6
		c2.2,2.4,3.9,5.1,5.1,8.2C219.2,237.8,219.8,241.2,219.8,244.8z M210.4,244.8c0-3.2-0.6-6.1-1.9-8.7c-1.3-2.6-3.1-4.7-5.3-6.2
		c-2.3-1.5-4.9-2.3-7.8-2.3c-3,0-5.6,0.8-7.8,2.3c-2.3,1.5-4,3.6-5.3,6.2c-1.3,2.6-1.9,5.5-1.9,8.8c0,3.2,0.6,6.1,1.9,8.7
		c1.3,2.6,3,4.7,5.3,6.2c2.3,1.5,4.9,2.3,7.8,2.3c3,0,5.6-0.8,7.8-2.3c2.3-1.5,4-3.6,5.3-6.2C209.8,250.9,210.4,248,210.4,244.8z"/>
	<path class="st1" d="M259.1,216.7c1.2,0,2.3,0.4,3.1,1.2c0.8,0.8,1.2,1.9,1.2,3.2v44.5c0,1.2-0.4,2.3-1.2,3.1
		c-0.8,0.8-1.8,1.3-3.1,1.3c-1.2,0-2.3-0.4-3.1-1.3c-0.8-0.8-1.2-1.9-1.2-3.1v-3.5l1.6,0.6c0,0.6-0.3,1.4-1,2.3
		c-0.7,0.9-1.6,1.8-2.7,2.6s-2.5,1.6-4.1,2.2s-3.3,0.9-5.1,0.9c-3.3,0-6.3-0.9-9-2.6c-2.7-1.7-4.8-4.1-6.4-7.1
		c-1.6-3-2.3-6.4-2.3-10.3c0-3.9,0.8-7.4,2.3-10.4c1.6-3,3.7-5.4,6.3-7.1c2.6-1.7,5.6-2.6,8.8-2.6c2.1,0,4,0.3,5.7,0.9
		c1.7,0.6,3.2,1.4,4.5,2.4c1.3,1,2.3,1.9,3,2.9c0.7,1,1,1.8,1,2.5l-2.6,0.9v-19.3c0-1.2,0.4-2.3,1.2-3.1
		C256.8,217.1,257.8,216.7,259.1,216.7z M244.5,262.8c2.1,0,4-0.5,5.5-1.6c1.6-1.1,2.8-2.5,3.7-4.3c0.9-1.8,1.3-3.9,1.3-6.1
		c0-2.3-0.4-4.4-1.3-6.2c-0.9-1.8-2.1-3.3-3.7-4.3c-1.6-1.1-3.4-1.6-5.5-1.6c-2.1,0-3.9,0.5-5.5,1.6c-1.6,1.1-2.8,2.5-3.7,4.3
		c-0.9,1.8-1.3,3.9-1.3,6.2c0,2.3,0.4,4.3,1.3,6.1c0.9,1.8,2.1,3.3,3.7,4.3C240.6,262.3,242.5,262.8,244.5,262.8z"/>
	<path class="st1" d="M303.9,230.8c1.2,0,2.3,0.4,3.1,1.2c0.8,0.8,1.2,1.9,1.2,3.2v30.5c0,1.2-0.4,2.3-1.2,3.1
		c-0.8,0.8-1.8,1.3-3.1,1.3c-1.2,0-2.3-0.4-3.1-1.3c-0.8-0.8-1.2-1.9-1.2-3.1v-3.5l1.6,0.6c0,0.6-0.3,1.4-1,2.3
		c-0.7,0.9-1.6,1.8-2.7,2.6s-2.5,1.6-4.1,2.2s-3.3,0.9-5.1,0.9c-3.3,0-6.3-0.9-9-2.6c-2.7-1.7-4.8-4.1-6.4-7.1
		c-1.6-3-2.3-6.4-2.3-10.3c0-3.9,0.8-7.4,2.3-10.4c1.6-3,3.7-5.4,6.3-7.1c2.6-1.7,5.6-2.6,8.8-2.6c2.1,0,4,0.3,5.7,0.9
		c1.7,0.6,3.2,1.4,4.5,2.4c1.3,1,2.3,1.9,3,2.9c0.7,1,1,1.8,1,2.5l-2.6,0.9v-5.3c0-1.2,0.4-2.3,1.2-3.1
		C301.7,231.2,302.7,230.8,303.9,230.8z M289.4,262.8c2.1,0,4-0.5,5.5-1.6c1.6-1.1,2.8-2.5,3.7-4.3c0.9-1.8,1.3-3.9,1.3-6.1
		c0-2.3-0.4-4.4-1.3-6.2c-0.9-1.8-2.1-3.3-3.7-4.3c-1.6-1.1-3.4-1.6-5.5-1.6c-2.1,0-3.9,0.5-5.5,1.6c-1.6,1.1-2.8,2.5-3.7,4.3
		c-0.9,1.8-1.3,3.9-1.3,6.2c0,2.3,0.4,4.3,1.3,6.1c0.9,1.8,2.1,3.3,3.7,4.3C285.5,262.3,287.3,262.8,289.4,262.8z"/>
	<path class="st1" d="M338.2,230.8c3.6,0,6.3,0.7,8.1,2.2c1.8,1.5,3.1,3.5,3.8,5.9c0.7,2.5,1,5.2,1,8.2v18.4c0,1.2-0.4,2.3-1.2,3.1
		c-0.8,0.8-1.8,1.3-3.1,1.3c-1.2,0-2.3-0.4-3.1-1.3c-0.8-0.8-1.2-1.9-1.2-3.1v-18.4c0-1.6-0.2-3-0.6-4.3c-0.4-1.3-1.1-2.3-2.2-3.1
		c-1.1-0.8-2.6-1.2-4.5-1.2c-1.9,0-3.5,0.4-4.9,1.2c-1.3,0.8-2.3,1.8-3,3.1c-0.7,1.3-1,2.7-1,4.3v18.4c0,1.2-0.4,2.3-1.2,3.1
		s-1.8,1.3-3.1,1.3c-1.2,0-2.3-0.4-3.1-1.3c-0.8-0.8-1.2-1.9-1.2-3.1v-29.7c0-1.2,0.4-2.3,1.2-3.1c0.8-0.8,1.8-1.3,3.1-1.3
		c1.2,0,2.3,0.4,3.1,1.3c0.8,0.8,1.2,1.9,1.2,3.1v3.1l-1.1-0.2c0.4-0.8,1.1-1.7,1.9-2.6c0.8-0.9,1.8-1.8,2.9-2.6
		c1.1-0.8,2.4-1.5,3.7-2C335.1,231,336.6,230.8,338.2,230.8z"/>
	<path class="st1" d="M391.7,230.8c1.2,0,2.3,0.4,3.1,1.2c0.8,0.8,1.2,1.9,1.2,3.2v30.5c0,1.2-0.4,2.3-1.2,3.1
		c-0.8,0.8-1.8,1.3-3.1,1.3c-1.2,0-2.3-0.4-3.1-1.3c-0.8-0.8-1.2-1.9-1.2-3.1v-3.5l1.6,0.6c0,0.6-0.3,1.4-1,2.3
		c-0.7,0.9-1.6,1.8-2.7,2.6s-2.5,1.6-4.1,2.2s-3.3,0.9-5.1,0.9c-3.3,0-6.3-0.9-9-2.6c-2.7-1.7-4.8-4.1-6.4-7.1
		c-1.6-3-2.3-6.4-2.3-10.3c0-3.9,0.8-7.4,2.3-10.4c1.6-3,3.7-5.4,6.3-7.1c2.6-1.7,5.6-2.6,8.8-2.6c2.1,0,4,0.3,5.7,0.9
		c1.7,0.6,3.2,1.4,4.5,2.4c1.3,1,2.3,1.9,3,2.9c0.7,1,1,1.8,1,2.5l-2.6,0.9v-5.3c0-1.2,0.4-2.3,1.2-3.1
		C389.4,231.2,390.5,230.8,391.7,230.8z M377.2,262.8c2.1,0,4-0.5,5.5-1.6c1.6-1.1,2.8-2.5,3.7-4.3c0.9-1.8,1.3-3.9,1.3-6.1
		c0-2.3-0.4-4.4-1.3-6.2c-0.9-1.8-2.1-3.3-3.7-4.3c-1.6-1.1-3.4-1.6-5.5-1.6c-2.1,0-3.9,0.5-5.5,1.6c-1.6,1.1-2.8,2.5-3.7,4.3
		c-0.9,1.8-1.3,3.9-1.3,6.2c0,2.3,0.4,4.3,1.3,6.1c0.9,1.8,2.1,3.3,3.7,4.3C373.3,262.3,375.1,262.8,377.2,262.8z"/>
	<path class="st1" d="M426,230.8c3.6,0,6.3,0.7,8.1,2.2c1.8,1.5,3.1,3.5,3.8,5.9c0.7,2.5,1,5.2,1,8.2v18.4c0,1.2-0.4,2.3-1.2,3.1
		c-0.8,0.8-1.8,1.3-3.1,1.3c-1.2,0-2.3-0.4-3.1-1.3c-0.8-0.8-1.2-1.9-1.2-3.1v-18.4c0-1.6-0.2-3-0.6-4.3c-0.4-1.3-1.1-2.3-2.2-3.1
		c-1.1-0.8-2.6-1.2-4.5-1.2c-1.9,0-3.5,0.4-4.9,1.2c-1.3,0.8-2.3,1.8-3,3.1c-0.7,1.3-1,2.7-1,4.3v18.4c0,1.2-0.4,2.3-1.2,3.1
		s-1.8,1.3-3.1,1.3c-1.2,0-2.3-0.4-3.1-1.3c-0.8-0.8-1.2-1.9-1.2-3.1v-29.7c0-1.2,0.4-2.3,1.2-3.1c0.8-0.8,1.8-1.3,3.1-1.3
		c1.2,0,2.3,0.4,3.1,1.3c0.8,0.8,1.2,1.9,1.2,3.1v3.1l-1.1-0.2c0.4-0.8,1.1-1.7,1.9-2.6c0.8-0.9,1.8-1.8,2.9-2.6
		c1.1-0.8,2.4-1.5,3.7-2C422.8,231,424.3,230.8,426,230.8z"/>
	<path class="st1" d="M463.9,230.8c2,0,3.9,0.3,5.5,0.9c1.7,0.6,3.1,1.4,4.4,2.4c1.2,1,2.2,1.9,2.9,2.9c0.7,1,1,1.8,1,2.5l-1.9,0.9
		v-5.3c0-1.2,0.4-2.3,1.2-3.1c0.8-0.8,1.8-1.3,3.1-1.3c1.2,0,2.3,0.4,3.1,1.2c0.8,0.8,1.2,1.9,1.2,3.2v32c0,4.2-0.9,7.5-2.7,10
		c-1.8,2.5-4.2,4.3-7.1,5.5c-2.9,1.1-6.1,1.7-9.4,1.7c-1,0-2.2-0.1-3.7-0.4c-1.5-0.2-3-0.5-4.4-0.9c-1.4-0.3-2.4-0.6-3.2-0.9
		c-1.4-0.6-2.4-1.4-3-2.3c-0.6-0.9-0.7-1.9-0.3-3c0.4-1.4,1.1-2.3,2.1-2.8s2-0.6,3-0.2c0.5,0.1,1.3,0.4,2.4,0.9
		c1.1,0.4,2.3,0.8,3.6,1.2c1.3,0.4,2.5,0.5,3.5,0.5c3.6,0,6.3-0.7,8-2.2c1.7-1.4,2.6-3.4,2.6-6v-6.3l0.9,0.6c0,0.6-0.3,1.4-1,2.3
		c-0.6,0.9-1.5,1.8-2.7,2.6c-1.1,0.9-2.5,1.6-4,2.2c-1.5,0.6-3.2,0.9-4.9,0.9c-3.4,0-6.5-0.9-9.2-2.6c-2.7-1.7-4.9-4.1-6.5-7.1
		c-1.6-3-2.4-6.4-2.4-10.3c0-3.9,0.8-7.4,2.4-10.4c1.6-3,3.7-5.4,6.4-7.1C457.6,231.6,460.6,230.8,463.9,230.8z M465.3,238.7
		c-2.2,0-4.1,0.5-5.7,1.6c-1.6,1.1-2.9,2.5-3.8,4.3c-0.9,1.8-1.4,3.9-1.4,6.2c0,2.3,0.5,4.3,1.4,6.1c0.9,1.8,2.2,3.3,3.8,4.3
		c1.6,1.1,3.5,1.6,5.7,1.6c2.2,0,4.1-0.5,5.8-1.6c1.6-1.1,2.9-2.5,3.8-4.3c0.9-1.8,1.4-3.9,1.4-6.1c0-2.3-0.5-4.4-1.4-6.2
		c-0.9-1.8-2.2-3.3-3.8-4.3C469.4,239.2,467.5,238.7,465.3,238.7z"/>
</g>
</svg>
