<?xml version="1.0" encoding="utf-8"?>
<!-- Generator: Adobe Illustrator 24.2.3, SVG Export Plug-In . SVG Version: 6.00 Build 0)  -->
<svg version="1.1" id="Layer_1" xmlns="http://www.w3.org/2000/svg" xmlns:xlink="http://www.w3.org/1999/xlink" x="0px" y="0px"
	 viewBox="0 0 512 128" style="enable-background:new 0 0 512 128;" xml:space="preserve">
<style type="text/css">
	.st0{fill:url(#SVGID_1_);}
	.st1{fill:#85D586;}
</style>
<g>
	<g>
		
			<linearGradient id="SVGID_1_" gradientUnits="userSpaceOnUse" x1="254.8677" y1="-39.8673" x2="223.1034" y2="78.6782" gradientTransform="matrix(6.123234e-17 1 1 -6.123234e-17 68.4483 -175.3922)">
			<stop  offset="0" style="stop-color:#56A679"/>
			<stop  offset="0.9985" style="stop-color:#85D586"/>
		</linearGradient>
		<path class="st0" d="M25.6,64.4c0-7.5,2.8-14.9,8.5-20.5l33.4-33.4c11.3-11.3,29.8-11.3,41.2,0l33.4,33.4
			c11.3,11.3,11.3,29.8,0,41.2l-11.5,11.5c-2.4,2.4-6.4,2.4-8.8,0s-2.4-6.4,0-8.8l11.5-11.5c6.5-6.5,6.5-16.9,0-23.4L99.9,19.4
			c-6.5-6.5-16.9-6.5-23.4,0L43,52.8c-3.1,3.1-4.8,7.3-4.8,11.7s1.7,8.6,4.8,11.7l33.4,33.4c0.2,0.2,0.5,0.5,0.7,0.7
			c3.7,3.3,8.6,4,13.2,1.9c3.8-1.6,7.7-5.7,7.7-11.8V87.2H85.3c-11.2,0-20.4-9.2-20.4-20.4s9.2-20.4,20.4-20.4H90
			c11.2,0,20.4,9.2,20.4,20.4v33.8c0,10.2-5.8,19.1-15.1,23.2c-9.1,4.1-19.3,2.5-26.6-4c-0.4-0.4-0.9-0.8-1.3-1.2L34.1,85.3
			C28.4,79.4,25.6,71.9,25.6,64.4z M98,66.7c0-4.4-3.6-7.9-7.9-7.9h-4.7c-4.4,0-7.9,3.6-7.9,7.9c0,4.4,3.6,7.9,7.9,7.9H98V66.7z"/>
	</g>
</g>
<g>
	<path class="st1" d="M219.6,61.8c0,3.6-0.6,7-1.8,10.1c-1.2,3.1-2.9,5.9-5.1,8.2c-2.2,2.4-4.8,4.2-7.8,5.6c-3,1.3-6.3,2-9.8,2
		c-3.6,0-6.8-0.7-9.8-2c-3-1.3-5.6-3.2-7.7-5.6c-2.2-2.4-3.9-5.1-5.1-8.2c-1.2-3.1-1.8-6.5-1.8-10.1c0-3.6,0.6-7,1.8-10.1
		c1.2-3.1,2.9-5.9,5.1-8.2c2.2-2.4,4.8-4.2,7.7-5.6c3-1.3,6.2-2,9.8-2c3.6,0,6.8,0.7,9.8,2c3,1.3,5.6,3.2,7.8,5.6
		c2.2,2.4,3.9,5.1,5.1,8.2C219,54.9,219.6,58.2,219.6,61.8z M210.3,61.8c0-3.2-0.6-6.1-1.9-8.7c-1.3-2.6-3.1-4.7-5.3-6.2
		c-2.3-1.5-4.9-2.3-7.8-2.3c-3,0-5.6,0.8-7.8,2.3c-2.3,1.5-4,3.6-5.3,6.2c-1.3,2.6-1.9,5.5-1.9,8.8c0,3.2,0.6,6.1,1.9,8.7
		c1.3,2.6,3,4.7,5.3,6.2c2.3,1.5,4.9,2.3,7.8,2.3c3,0,5.6-0.8,7.8-2.3c2.3-1.5,4-3.6,5.3-6.2C209.6,68,210.3,65.1,210.3,61.8z"/>
	<path class="st1" d="M258.9,33.8c1.2,0,2.3,0.4,3.1,1.2c0.8,0.8,1.2,1.9,1.2,3.2v44.5c0,1.2-0.4,2.3-1.2,3.1
		c-0.8,0.8-1.8,1.3-3.1,1.3c-1.2,0-2.3-0.4-3.1-1.3c-0.8-0.8-1.2-1.9-1.2-3.1v-3.5l1.6,0.6c0,0.6-0.3,1.4-1,2.3
		c-0.7,0.9-1.6,1.8-2.7,2.6s-2.5,1.6-4.1,2.2s-3.3,0.9-5.1,0.9c-3.3,0-6.3-0.9-9-2.6c-2.7-1.7-4.8-4.1-6.4-7.1
		c-1.6-3-2.3-6.4-2.3-10.3c0-3.9,0.8-7.4,2.3-10.4c1.6-3,3.7-5.4,6.3-7.1c2.6-1.7,5.6-2.6,8.8-2.6c2.1,0,4,0.3,5.7,0.9
		c1.7,0.6,3.2,1.4,4.5,2.4c1.3,1,2.3,1.9,3,2.9c0.7,1,1,1.8,1,2.5l-2.6,0.9V38.2c0-1.2,0.4-2.3,1.2-3.1
		C256.7,34.2,257.7,33.8,258.9,33.8z M244.4,79.8c2.1,0,4-0.5,5.5-1.6c1.6-1.1,2.8-2.5,3.7-4.3c0.9-1.8,1.3-3.9,1.3-6.1
		c0-2.3-0.4-4.4-1.3-6.2c-0.9-1.8-2.1-3.3-3.7-4.3c-1.6-1.1-3.4-1.6-5.5-1.6c-2.1,0-3.9,0.5-5.5,1.6c-1.6,1.1-2.8,2.5-3.7,4.3
		c-0.9,1.8-1.3,3.9-1.3,6.2c0,2.3,0.4,4.3,1.3,6.1c0.9,1.8,2.1,3.3,3.7,4.3C240.5,79.3,242.3,79.8,244.4,79.8z"/>
	<path class="st1" d="M303.8,47.8c1.2,0,2.3,0.4,3.1,1.2c0.8,0.8,1.2,1.9,1.2,3.2v30.5c0,1.2-0.4,2.3-1.2,3.1
		c-0.8,0.8-1.8,1.3-3.1,1.3c-1.2,0-2.3-0.4-3.1-1.3c-0.8-0.8-1.2-1.9-1.2-3.1v-3.5l1.6,0.6c0,0.6-0.3,1.4-1,2.3
		c-0.7,0.9-1.6,1.8-2.7,2.6s-2.5,1.6-4.1,2.2s-3.3,0.9-5.1,0.9c-3.3,0-6.3-0.9-9-2.6c-2.7-1.7-4.8-4.1-6.4-7.1
		c-1.6-3-2.3-6.4-2.3-10.3c0-3.9,0.8-7.4,2.3-10.4c1.6-3,3.7-5.4,6.3-7.1c2.6-1.7,5.6-2.6,8.8-2.6c2.1,0,4,0.3,5.7,0.9
		c1.7,0.6,3.2,1.4,4.5,2.4c1.3,1,2.3,1.9,3,2.9c0.7,1,1,1.8,1,2.5l-2.6,0.9v-5.3c0-1.2,0.4-2.3,1.2-3.1
		C301.5,48.2,302.5,47.8,303.8,47.8z M289.2,79.8c2.1,0,4-0.5,5.5-1.6c1.6-1.1,2.8-2.5,3.7-4.3c0.9-1.8,1.3-3.9,1.3-6.1
		c0-2.3-0.4-4.4-1.3-6.2c-0.9-1.8-2.1-3.3-3.7-4.3c-1.6-1.1-3.4-1.6-5.5-1.6c-2.1,0-3.9,0.5-5.5,1.6c-1.6,1.1-2.8,2.5-3.7,4.3
		c-0.9,1.8-1.3,3.9-1.3,6.2c0,2.3,0.4,4.3,1.3,6.1c0.9,1.8,2.1,3.3,3.7,4.3C285.4,79.3,287.2,79.8,289.2,79.8z"/>
	<path class="st1" d="M338.1,47.8c3.6,0,6.3,0.7,8.1,2.2c1.8,1.5,3.1,3.5,3.8,5.9c0.7,2.5,1,5.2,1,8.2v18.4c0,1.2-0.4,2.3-1.2,3.1
		c-0.8,0.8-1.8,1.3-3.1,1.3c-1.2,0-2.3-0.4-3.1-1.3c-0.8-0.8-1.2-1.9-1.2-3.1V64.2c0-1.6-0.2-3-0.6-4.3c-0.4-1.3-1.1-2.3-2.2-3.1
		c-1.1-0.8-2.6-1.2-4.5-1.2c-1.9,0-3.5,0.4-4.9,1.2c-1.3,0.8-2.3,1.8-3,3.1c-0.7,1.3-1,2.7-1,4.3v18.4c0,1.2-0.4,2.3-1.2,3.1
		S323,87,321.8,87c-1.2,0-2.3-0.4-3.1-1.3c-0.8-0.8-1.2-1.9-1.2-3.1V52.9c0-1.2,0.4-2.3,1.2-3.1c0.8-0.8,1.8-1.3,3.1-1.3
		c1.2,0,2.3,0.4,3.1,1.3c0.8,0.8,1.2,1.9,1.2,3.1V56l-1.1-0.2c0.4-0.8,1.1-1.7,1.9-2.6c0.8-0.9,1.8-1.8,2.9-2.6
		c1.1-0.8,2.4-1.5,3.7-2C334.9,48.1,336.4,47.8,338.1,47.8z"/>
	<path class="st1" d="M391.6,47.8c1.2,0,2.3,0.4,3.1,1.2c0.8,0.8,1.2,1.9,1.2,3.2v30.5c0,1.2-0.4,2.3-1.2,3.1
		c-0.8,0.8-1.8,1.3-3.1,1.3c-1.2,0-2.3-0.4-3.1-1.3c-0.8-0.8-1.2-1.9-1.2-3.1v-3.5l1.6,0.6c0,0.6-0.3,1.4-1,2.3
		c-0.7,0.9-1.6,1.8-2.7,2.6s-2.5,1.6-4.1,2.2s-3.3,0.9-5.1,0.9c-3.3,0-6.3-0.9-9-2.6c-2.7-1.7-4.8-4.1-6.4-7.1
		c-1.6-3-2.3-6.4-2.3-10.3c0-3.9,0.8-7.4,2.3-10.4c1.6-3,3.7-5.4,6.3-7.1c2.6-1.7,5.6-2.6,8.8-2.6c2.1,0,4,0.3,5.7,0.9
		c1.7,0.6,3.2,1.4,4.5,2.4c1.3,1,2.3,1.9,3,2.9c0.7,1,1,1.8,1,2.5l-2.6,0.9v-5.3c0-1.2,0.4-2.3,1.2-3.1
		C389.3,48.2,390.3,47.8,391.6,47.8z M377,79.8c2.1,0,4-0.5,5.5-1.6c1.6-1.1,2.8-2.5,3.7-4.3c0.9-1.8,1.3-3.9,1.3-6.1
		c0-2.3-0.4-4.4-1.3-6.2c-0.9-1.8-2.1-3.3-3.7-4.3c-1.6-1.1-3.4-1.6-5.5-1.6c-2.1,0-3.9,0.5-5.5,1.6c-1.6,1.1-2.8,2.5-3.7,4.3
		c-0.9,1.8-1.3,3.9-1.3,6.2c0,2.3,0.4,4.3,1.3,6.1c0.9,1.8,2.1,3.3,3.7,4.3C373.1,79.3,375,79.8,377,79.8z"/>
	<path class="st1" d="M425.8,47.8c3.6,0,6.3,0.7,8.1,2.2c1.8,1.5,3.1,3.5,3.8,5.9c0.7,2.5,1,5.2,1,8.2v18.4c0,1.2-0.4,2.3-1.2,3.1
		c-0.8,0.8-1.8,1.3-3.1,1.3c-1.2,0-2.3-0.4-3.1-1.3c-0.8-0.8-1.2-1.9-1.2-3.1V64.2c0-1.6-0.2-3-0.6-4.3c-0.4-1.3-1.1-2.3-2.2-3.1
		c-1.1-0.8-2.6-1.2-4.5-1.2c-1.9,0-3.5,0.4-4.9,1.2c-1.3,0.8-2.3,1.8-3,3.1c-0.7,1.3-1,2.7-1,4.3v18.4c0,1.2-0.4,2.3-1.2,3.1
		s-1.8,1.3-3.1,1.3c-1.2,0-2.3-0.4-3.1-1.3c-0.8-0.8-1.2-1.9-1.2-3.1V52.9c0-1.2,0.4-2.3,1.2-3.1c0.8-0.8,1.8-1.3,3.1-1.3
		c1.2,0,2.3,0.4,3.1,1.3c0.8,0.8,1.2,1.9,1.2,3.1V56l-1.1-0.2c0.4-0.8,1.1-1.7,1.9-2.6c0.8-0.9,1.8-1.8,2.9-2.6
		c1.1-0.8,2.4-1.5,3.7-2C422.7,48.1,424.2,47.8,425.8,47.8z"/>
	<path class="st1" d="M463.8,47.8c2,0,3.9,0.3,5.5,0.9c1.7,0.6,3.1,1.4,4.4,2.4c1.2,1,2.2,1.9,2.9,2.9c0.7,1,1,1.8,1,2.5l-1.9,0.9
		v-5.3c0-1.2,0.4-2.3,1.2-3.1c0.8-0.8,1.8-1.3,3.1-1.3c1.2,0,2.3,0.4,3.1,1.2c0.8,0.8,1.2,1.9,1.2,3.2v32c0,4.2-0.9,7.5-2.7,10
		c-1.8,2.5-4.2,4.3-7.1,5.5c-2.9,1.1-6.1,1.7-9.4,1.7c-1,0-2.2-0.1-3.7-0.4c-1.5-0.2-3-0.5-4.4-0.9c-1.4-0.3-2.4-0.6-3.2-0.9
		c-1.4-0.6-2.4-1.4-3-2.3c-0.6-0.9-0.7-1.9-0.3-3c0.4-1.4,1.1-2.3,2.1-2.8s2-0.6,3-0.2c0.5,0.1,1.3,0.4,2.4,0.9
		c1.1,0.4,2.3,0.8,3.6,1.2c1.3,0.4,2.5,0.5,3.5,0.5c3.6,0,6.3-0.7,8-2.2c1.7-1.4,2.6-3.4,2.6-6v-6.3l0.9,0.6c0,0.6-0.3,1.4-1,2.3
		c-0.6,0.9-1.5,1.8-2.7,2.6c-1.1,0.9-2.5,1.6-4,2.2c-1.5,0.6-3.2,0.9-4.9,0.9c-3.4,0-6.5-0.9-9.2-2.6c-2.7-1.7-4.9-4.1-6.5-7.1
		c-1.6-3-2.4-6.4-2.4-10.3c0-3.9,0.8-7.4,2.4-10.4c1.6-3,3.7-5.4,6.4-7.1C457.5,48.7,460.5,47.8,463.8,47.8z M465.1,55.7
		c-2.2,0-4.1,0.5-5.7,1.6c-1.6,1.1-2.9,2.5-3.8,4.3c-0.9,1.8-1.4,3.9-1.4,6.2c0,2.3,0.5,4.3,1.4,6.1c0.9,1.8,2.2,3.3,3.8,4.3
		c1.6,1.1,3.5,1.6,5.7,1.6c2.2,0,4.1-0.5,5.8-1.6c1.6-1.1,2.9-2.5,3.8-4.3c0.9-1.8,1.4-3.9,1.4-6.1c0-2.3-0.5-4.4-1.4-6.2
		c-0.9-1.8-2.2-3.3-3.8-4.3C469.3,56.2,467.3,55.7,465.1,55.7z"/>
</g>
</svg>
